<svg width="101" height="96" viewBox="0 0 101 96" fill="none" xmlns="http://www.w3.org/2000/svg">
<ellipse cx="14.8048" cy="73.3903" rx="11.322" ry="10.126" fill="#1A2FE9"/>
<path d="M75.9436 61.014C67.0431 75.9741 89.53 84.6414 46.5064 84.6414C28.9345 84.6414 15.937 85.7665 10.276 82.3912C1.31481 78.8074 4.29565 71.2513 13.6726 63.2642C13.6726 47.1083 27.9842 31.761 44.242 31.761C60.4997 31.761 75.9436 44.858 75.9436 61.014Z" fill="#1A2FE9"/>
<rect x="53.2996" y="76.7657" width="13.5864" height="15.7516" rx="1.74138" fill="#1A2FE9"/>
<rect x="21.5979" y="76.7657" width="13.5864" height="15.7516" rx="1.74138" fill="#1A2FE9"/>
<path d="M93.1638 82.9396C89.9528 84.5451 83.5862 84.681 77.4913 83.8103C72.4211 83.086 59.2962 85.02 60.1364 79.9676C61.595 71.1961 71.0855 53.055 73.1379 52.4655C74.0086 51.5948 76.0488 62.3419 80.9741 67.2672L87.0689 73.3621C91.4224 77.7155 94.9051 82.069 93.1638 82.9396Z" fill="#1A2FE9" stroke="#1A2FE9" stroke-width="1.74138"/>
<path d="M42.8479 17.9242C43.5295 17.0727 44.8173 17.0506 45.5282 17.878L61.6944 36.6955C62.6554 37.814 61.8783 39.5458 60.404 39.5712L28.7377 40.1167C27.2634 40.1421 26.4264 38.4382 27.3478 37.2872L42.8479 17.9242Z" fill="#1A2FE9"/>
<path d="M73.527 30.8431C74.8314 30.4891 76.0285 31.6787 75.6723 32.975L71.0292 49.8707C70.6759 51.1563 69.0571 51.5832 68.1089 50.6409L55.7498 38.3592C54.8016 37.4169 55.2312 35.8082 56.5248 35.4571L73.527 30.8431Z" fill="#1A2FE9"/>
<path d="M13.8811 32.975C13.5248 31.6787 14.722 30.4891 16.0264 30.8431L33.0286 35.4572C34.3222 35.8082 34.7518 37.4169 33.8036 38.3592L21.4445 50.6409C20.4963 51.5832 18.8775 51.1563 18.5242 49.8708L13.8811 32.975Z" fill="#1A2FE9"/>
<rect x="29.6035" y="43.7586" width="31.3448" height="31.3448" fill="#F2E7DA" stroke="#F2E7DA" stroke-width="3.48276"/>
<rect x="31.3448" y="62.5268" width="10.8352" height="10.8352" fill="#1A2FE9"/>
<rect x="48.3716" y="45.5" width="10.8352" height="10.8352" fill="#1A2FE9"/>
<rect x="48.3716" y="56.3353" width="10.8352" height="10.8352" fill="#1A2FE9"/>
<rect x="37.5364" y="45.5" width="10.8352" height="10.8352" fill="#1A2FE9"/>
</svg>
